<?xml version="1.0" encoding="UTF-8" standalone="no"?>
<!DOCTYPE svg PUBLIC "-//W3C//DTD SVG 1.1//EN" "http://www.w3.org/Graphics/SVG/1.1/DTD/svg11.dtd">
<svg viewBox="208,686291501015 208,686291501015 182,62741699797 182,62741699797" version="1.1" xmlns="http://www.w3.org/2000/svg">
  <polygon fill="#008000" stroke="#008000" points="258,150238037109, 272,639526367188, 253,510589599609, 281,595275878906, 255,585800170898, 277,035278320313" />
  <polygon fill="#008000" stroke="#008000" points="261,182342529297, 268,485107421875, 253,510589599609, 281,595275878906, 258,150238037109, 272,639526367188" />
  <polygon fill="#008000" stroke="#008000" points="264,644653320313, 335,355346679688, 250,834732055664, 290,90185546875, 261,182342529297, 268,485107421875" />
  <polygon fill="#008000" stroke="#008000" points="261,182342529297, 268,485107421875, 250,834732055664, 290,90185546875, 253,510589599609, 281,595275878906" />
  <polygon fill="#008000" stroke="#008000" points="250,834732055664, 290,90185546875, 251,930053710938, 286,242095947266, 253,510589599609, 281,595275878906" />
  <polygon fill="#008000" stroke="#008000" points="250,834732055664, 290,90185546875, 250, 300, 250,202255249023, 295,507263183594" />
  <polygon fill="#008000" stroke="#008000" points="268,485107421875, 261,182342529297, 261,182342529297, 268,485107421875, 264,644653320313, 264,644653320313" />
  <polygon fill="#008000" stroke="#008000" points="261,182342529297, 268,485107421875, 286,242095947266, 251,930053710938, 290,90185546875, 250,834732055664" />
  <polygon fill="#008000" stroke="#008000" points="290,90185546875, 250,834732055664, 295,507263183594, 250,202255249023, 300, 250" />
  <polygon fill="#008000" stroke="#008000" points="261,182342529297, 268,485107421875, 327,360473632813, 341,849761962891, 264,644653320313, 335,355346679688" />
  <polygon fill="#008000" stroke="#008000" points="272,639526367188, 258,150238037109, 277,035278320313, 255,585800170898, 286,242095947266, 251,930053710938" />
  <polygon fill="#008000" stroke="#008000" points="277,035278320313, 255,585800170898, 281,595275878906, 253,510589599609, 286,242095947266, 251,930053710938" />
  <polygon fill="#008000" stroke="#008000" points="272,639526367188, 258,150238037109, 286,242095947266, 251,930053710938, 261,182342529297, 268,485107421875" />
  <polygon fill="#008000" stroke="#008000" points="268,485107421875, 261,182342529297, 272,639526367188, 258,150238037109, 261,182342529297, 268,485107421875" />
  <polygon fill="#008000" stroke="#008000" points="290,90185546875, 250,834732055664, 327,360473632813, 258,150238037109, 261,182342529297, 268,485107421875" />
  <polygon fill="#008000" stroke="#008000" points="253,510589599609, 318,404724121094, 251,930053710938, 313,757904052734, 250,202255249023, 304,492736816406" />
  <polygon fill="#008000" stroke="#008000" points="250,202255249023, 304,492736816406, 251,930053710938, 313,757904052734, 250,834732055664, 309,09814453125" />
  <polygon fill="#008000" stroke="#008000" points="253,510589599609, 318,404724121094, 250,202255249023, 304,492736816406, 264,644653320313, 335,355346679688" />
  <polygon fill="#008000" stroke="#008000" points="258,150238037109, 327,360473632813, 255,585800170898, 322,964721679688, 253,510589599609, 318,404724121094" />
  <polygon fill="#008000" stroke="#008000" points="253,510589599609, 318,404724121094, 264,644653320313, 335,355346679688, 258,150238037109, 327,360473632813" />
  <polygon fill="#008000" stroke="#008000" points="261,182342529297, 331,514892578125, 258,150238037109, 327,360473632813, 264,644653320313, 335,355346679688" />
  <polygon fill="#008000" stroke="#008000" points="250,202255249023, 304,492736816406, 250, 300, 250,834732055664, 290,90185546875" />
  <polygon fill="#008000" stroke="#008000" points="272,639526367188, 341,849761962891, 268,485107421875, 338,817657470703, 264,644653320313, 335,355346679688" />
  <polygon fill="#008000" stroke="#008000" points="272,639526367188, 341,849761962891, 281,595275878906, 346,489410400391, 277,035278320313, 344,414215087891" />
  <polygon fill="#008000" stroke="#008000" points="281,595275878906, 346,489410400391, 272,639526367188, 341,849761962891, 264,644653320313, 335,355346679688" />
  <polygon fill="#008000" stroke="#008000" points="290,90185546875, 349,165283203125, 286,242095947266, 348,069946289063, 281,595275878906, 346,489410400391" />
  <polygon fill="#008000" stroke="#008000" points="281,595275878906, 346,489410400391, 327,360473632813, 341,849761962891, 290,90185546875, 349,165283203125" />
  <polygon fill="#008000" stroke="#008000" points="250,202255249023, 304,492736816406, 250,834732055664, 290,90185546875, 264,644653320313, 335,355346679688" />
  <polygon fill="#008000" stroke="#008000" points="264,644653320313, 335,355346679688, 327,360473632813, 341,849761962891, 281,595275878906, 346,489410400391" />
  <polygon fill="#008000" stroke="#008000" points="295,507263183594, 349,797760009766, 290,90185546875, 349,165283203125, 300, 350" />
  <polygon fill="#008000" stroke="#008000" points="300, 250, 304,492736816406, 250,202255249023, 290,90185546875, 250,834732055664" />
  <polygon fill="#008000" stroke="#008000" points="313,757904052734, 251,930053710938, 304,492736816406, 250,202255249023, 309,09814453125, 250,834732055664" />
  <polygon fill="#008000" stroke="#008000" points="313,757904052734, 251,930053710938, 318,404724121094, 253,510589599609, 290,90185546875, 250,834732055664" />
  <polygon fill="#008000" stroke="#008000" points="290,90185546875, 250,834732055664, 318,404724121094, 253,510589599609, 327,360473632813, 258,150238037109" />
  <polygon fill="#008000" stroke="#008000" points="261,182342529297, 268,485107421875, 327,360473632813, 258,150238037109, 341,849761962891, 327,360473632813" />
  <polygon fill="#008000" stroke="#008000" points="327,360473632813, 258,150238037109, 331,514892578125, 261,182342529297, 335,355346679688, 264,644653320313" />
  <polygon fill="#008000" stroke="#008000" points="322,964721679688, 255,585800170898, 327,360473632813, 258,150238037109, 318,404724121094, 253,510589599609" />
  <polygon fill="#008000" stroke="#008000" points="335,355346679688, 264,644653320313, 341,849761962891, 272,639526367188, 327,360473632813, 258,150238037109" />
  <polygon fill="#008000" stroke="#008000" points="341,849761962891, 327,360473632813, 327,360473632813, 258,150238037109, 341,849761962891, 272,639526367188" />
  <polygon fill="#008000" stroke="#008000" points="344,414215087891, 277,035278320313, 348,069946289063, 286,242095947266, 341,849761962891, 272,639526367188" />
  <polygon fill="#008000" stroke="#008000" points="346,489410400391, 281,595275878906, 348,069946289063, 286,242095947266, 344,414215087891, 277,035278320313" />
  <polygon fill="#008000" stroke="#008000" points="349,797760009766, 295,507263183594, 348,069946289063, 286,242095947266, 349,165283203125, 290,90185546875" />
  <polygon fill="#008000" stroke="#008000" points="349,797760009766, 304,492736816406, 348,069946289063, 286,242095947266, 349,797760009766, 295,507263183594" />
  <polygon fill="#008000" stroke="#008000" points="348,069946289063, 286,242095947266, 341,849761962891, 327,360473632813, 341,849761962891, 272,639526367188" />
  <polygon fill="#008000" stroke="#008000" points="338,817657470703, 268,485107421875, 341,849761962891, 272,639526367188, 335,355346679688, 264,644653320313" />
  <polygon fill="#008000" stroke="#008000" points="349,797760009766, 295,507263183594, 350, 300, 349,797760009766, 304,492736816406" />
  <polygon fill="#008000" stroke="#008000" points="327,360473632813, 341,849761962891, 322,964721679688, 344,414215087891, 318,404724121094, 346,489410400391" />
  <polygon fill="#008000" stroke="#008000" points="331,514892578125, 338,817657470703, 327,360473632813, 341,849761962891, 335,355346679688, 335,355346679688" />
  <polygon fill="#008000" stroke="#008000" points="290,90185546875, 349,165283203125, 318,404724121094, 346,489410400391, 309,09814453125, 349,165283203125" />
  <polygon fill="#008000" stroke="#008000" points="318,404724121094, 346,489410400391, 290,90185546875, 349,165283203125, 327,360473632813, 341,849761962891" />
  <polygon fill="#008000" stroke="#008000" points="304,492736816406, 349,797760009766, 290,90185546875, 349,165283203125, 309,09814453125, 349,165283203125" />
  <polygon fill="#008000" stroke="#008000" points="309,09814453125, 349,165283203125, 318,404724121094, 346,489410400391, 313,757904052734, 348,069946289063" />
  <polygon fill="#008000" stroke="#008000" points="290,90185546875, 349,165283203125, 304,492736816406, 349,797760009766, 300, 350" />
  <polygon fill="#008000" stroke="#008000" points="344,414215087891, 322,964721679688, 349,165283203125, 309,09814453125, 348,069946289063, 313,757904052734" />
  <polygon fill="#008000" stroke="#008000" points="344,414215087891, 322,964721679688, 348,069946289063, 286,242095947266, 349,165283203125, 309,09814453125" />
  <polygon fill="#008000" stroke="#008000" points="346,489410400391, 318,404724121094, 344,414215087891, 322,964721679688, 348,069946289063, 313,757904052734" />
  <polygon fill="#008000" stroke="#008000" points="341,849761962891, 327,360473632813, 338,817657470703, 331,514892578125, 335,355346679688, 335,355346679688" />
  <polygon fill="#008000" stroke="#008000" points="341,849761962891, 327,360473632813, 335,355346679688, 335,355346679688, 327,360473632813, 341,849761962891" />
  <polygon fill="#008000" stroke="#008000" points="348,069946289063, 286,242095947266, 344,414215087891, 322,964721679688, 341,849761962891, 327,360473632813" />
  <polygon fill="#008000" stroke="#008000" points="327,360473632813, 341,849761962891, 261,182342529297, 268,485107421875, 341,849761962891, 327,360473632813" />
  <polygon fill="#008000" stroke="#008000" points="348,069946289063, 286,242095947266, 349,797760009766, 304,492736816406, 349,165283203125, 309,09814453125" />
  <polygon fill="#008000" stroke="#008000" points="313,757904052734, 251,930053710938, 290,90185546875, 250,834732055664, 304,492736816406, 250,202255249023" />
  <circle cx="300" cy="300" r="80" fill-opacity="0" stroke="#000000" />
  <circle cx="300" cy="300" r="50" fill-opacity="0" stroke="#000000" />
</svg>